<svg width="20" height="21" viewBox="0 0 20 21" fill="none" xmlns="http://www.w3.org/2000/svg">
<g clip-path="url(#clip0_388_5627)">
<path d="M3.30781 11.3078C3.19082 11.1907 3.12508 11.0319 3.125 10.8664V3.625H10.3664C10.5319 3.62508 10.6907 3.69082 10.8078 3.80781L18.5672 11.5672C18.6843 11.6844 18.7501 11.8433 18.7501 12.009C18.7501 12.1747 18.6843 12.3336 18.5672 12.4508L11.9531 19.0672C11.8359 19.1843 11.677 19.2501 11.5113 19.2501C11.3456 19.2501 11.1867 19.1843 11.0695 19.0672L3.30781 11.3078Z" stroke="#6B028D" stroke-width="1.3" stroke-linecap="round" stroke-linejoin="round"/>
<path d="M6.5625 8C7.08027 8 7.5 7.58027 7.5 7.0625C7.5 6.54473 7.08027 6.125 6.5625 6.125C6.04473 6.125 5.625 6.54473 5.625 7.0625C5.625 7.58027 6.04473 8 6.5625 8Z" fill="#6B028D"/>
</g>
<defs>
<clipPath id="clip0_388_5627">
<rect width="20" height="20" fill="white" transform="translate(0 0.5)"/>
</clipPath>
</defs>
</svg>
