<svg width="75" height="57" viewBox="0 0 75 57" fill="none" xmlns="http://www.w3.org/2000/svg">
<path d="M50.3257 38.233L55.1639 33.0666L72.1668 48.9894C73.5935 50.3255 73.667 52.5651 72.3309 53.9918C70.9949 55.4184 68.7553 55.4919 67.3286 54.1559L50.3257 38.233Z" fill="#360146"/>
<circle cx="40.0776" cy="21.9743" r="19.9667" fill="#360146"/>
<circle cx="40.0776" cy="21.9737" r="17.0087" fill="#FCF6E8"/>
<path d="M51.9119 15.9066C52.5968 15.6087 52.916 14.8081 52.5548 14.1544C51.4083 12.0793 49.7605 10.3148 47.7531 9.02736C45.7456 7.73991 43.4546 6.97829 41.0905 6.80189C40.3456 6.74631 39.7512 7.37041 39.7661 8.11715C39.781 8.86388 40.4004 9.44895 41.1438 9.52091C42.9709 9.69776 44.7369 10.3062 46.2929 11.3041C47.8489 12.302 49.1385 13.6533 50.0614 15.2401C50.4369 15.8857 51.227 16.2045 51.9119 15.9066Z" fill="#FFD980"/>
<path d="M55.7231 43.288L60.5614 38.1215L72.1665 48.9895C73.5932 50.3255 73.6667 52.5652 72.3306 53.9918C70.9946 55.4185 68.755 55.492 67.3283 54.1559L55.7231 43.288Z" fill="#6B028D"/>
<circle cx="52.8605" cy="17.854" r="1.26773" fill="#FFD980"/>
<path d="M16.0438 0L19.0145 12.8231L31.8376 15.7938L19.0145 18.7645L16.0438 31.5876L13.0731 18.7645L0.25 15.7938L13.0731 12.8231L16.0438 0Z" fill="#FFB400"/>
<path d="M33.9498 19.1215L35.6189 26.3264L42.8239 27.9956L35.6189 29.6647L33.9498 36.8697L32.2807 29.6647L25.0757 27.9956L32.2807 26.3264L33.9498 19.1215Z" fill="#FFB400"/>
</svg>
